<svg id="visual" viewBox="0 0 960 540" width="960" height="540" xmlns="http://www.w3.org/2000/svg" xmlns:xlink="http://www.w3.org/1999/xlink" version="1.1"><path d="M712 540L703.3 527.2C694.7 514.3 677.3 488.7 685.2 463C693 437.3 726 411.7 718.5 386C711 360.3 663 334.7 652.5 308.8C642 283 669 257 661.2 231.2C653.3 205.3 610.7 179.7 619.2 154C627.7 128.3 687.3 102.7 690.5 77C693.7 51.3 640.3 25.7 613.7 12.8L587 0L960 0L960 12.8C960 25.7 960 51.3 960 77C960 102.7 960 128.3 960 154C960 179.7 960 205.3 960 231.2C960 257 960 283 960 308.8C960 334.7 960 360.3 960 386C960 411.7 960 437.3 960 463C960 488.7 960 514.3 960 527.2L960 540Z" fill="#ffe0aa" stroke-linecap="round" stroke-linejoin="miter"></path></svg>